<?xml version="1.0" encoding="utf-8"?>
<!-- Generator: Adobe Illustrator 27.2.0, SVG Export Plug-In . SVG Version: 6.00 Build 0)  -->
<svg version="1.1" id="Layer_1" xmlns="http://www.w3.org/2000/svg" xmlns:xlink="http://www.w3.org/1999/xlink" x="0px" y="0px"
	 viewBox="0 0 380 120" style="enable-background:new 0 0 380 120;" xml:space="preserve">
<style type="text/css">
	.st0{fill:#643D73;}
</style>
<g>
	<path class="st0" d="M120.63,60.7c0,16.76,0,33.52,0,50.28c0,2.84,0.27,2.66-2.72,2.66c-8.07,0.01-16.13,0-24.2,0
		c-0.29,0-0.57-0.03-0.86,0c-1,0.1-1.7-0.29-2.35-1.07c-2.3-2.77-4.67-5.49-7.01-8.23c-0.89-1.04-1.78-2.09-2.68-3.13
		c-0.22-0.26-0.43-0.54-0.69-0.77c-0.16-0.14-0.38-0.22-0.57-0.32c-0.12,0.24-0.3,0.47-0.34,0.72c-0.06,0.45-0.04,0.91-0.04,1.37
		c0,2.97,0,5.95,0,8.92c0,2.49-0.01,2.5-2.41,2.5c-8.12,0-16.25,0-24.37,0c-2.31,0-2.31-0.01-2.31-2.4
		c0-14.64-0.02-29.28,0.03-43.93c0-1.42-0.38-2.48-1.32-3.53c-3.29-3.73-6.49-7.54-9.74-11.31c-0.28-0.33-0.78-0.85-1-0.78
		c-0.57,0.19-0.36,0.86-0.39,1.34c-0.03,0.57-0.01,1.14-0.01,1.72c0,18.65,0,37.29,0,55.94c0,3.36,0.13,2.82-2.86,2.85
		c-5.09,0.05-10.18,0.09-15.27,0.1c-3.14,0-6.29-0.05-9.44-0.1c-1.37-0.02-1.46-0.11-1.51-1.46c-0.02-0.4,0-0.8,0-1.2
		c0-33.52,0-67.03-0.01-100.55c0-3.18,0.1-2.65,2.73-2.66C19.52,7.65,27.76,7.69,36,7.63c1.26-0.01,2.11,0.34,2.92,1.32
		c3.14,3.78,6.37,7.5,9.58,11.22c0.36,0.42,0.82,0.75,1.23,1.12c0.66-0.47,0.32-1.15,0.33-1.72c0.04-3.15,0.02-6.29,0.02-9.44
		c0-0.4-0.02-0.8,0.01-1.2c0.06-0.99,0.23-1.14,1.27-1.2c0.29-0.02,0.57-0.01,0.86-0.01c8.24,0,16.47,0,24.71,0
		c2.24,0,2.25,0.01,2.25,2.32c0,14.36,0,28.71,0,43.07c0,0.57,0.03,1.15,0,1.72c-0.05,0.85,0.27,1.52,0.83,2.17
		c3.4,3.94,6.78,7.9,10.16,11.85c0.22,0.26,0.45,0.52,0.71,0.74c0.11,0.09,0.33,0.15,0.45,0.1c0.12-0.05,0.22-0.26,0.23-0.4
		c0.03-0.57,0.04-1.14,0.04-1.71c0-19.16,0-38.32,0-57.48c0-2.22-0.32-2.38,2.32-2.37c5.2,0,10.41-0.05,15.61-0.05
		c3.09,0,6.18,0.04,9.27,0.06c0.29,0,0.57,0,0.86,0.02c0.59,0.04,0.96,0.32,0.96,0.96c0,0.57,0.02,1.14,0.02,1.72
		C120.63,27.19,120.63,43.94,120.63,60.7z"/>
	<path class="st0" d="M190.32,46.47c0.8,0,1.61,0.07,2.4-0.02c1.06-0.11,1.64,0.37,2.18,1.24c5.06,8.28,10.15,16.54,15.23,24.82
		c0.96,1.56,0.86,1.71-1.05,1.74c-1.2,0.02-2.41-0.08-3.6,0.03c-1.49,0.13-2.4-0.4-3.16-1.73c-2.02-3.51-4.21-6.93-6.33-10.38
		c-2.8-4.58-5.6-9.16-8.4-13.73c-0.15-0.24-0.3-0.48-0.45-0.73c-0.67-1.15-0.64-1.21,0.61-1.23
		C188.61,46.46,189.46,46.47,190.32,46.47z"/>
	<path class="st0" d="M233.87,99.17c0,1.6-0.01,3.2,0,4.79c0.06,6.09-3.68,8.3-7.86,9.19c-0.89,0.19-1.81,0.25-2.71,0.34
		c-0.56,0.05-0.85-0.26-0.89-0.8c-0.03-0.4-0.03-0.8-0.02-1.2c0.02-1.33,0-1.37,1.28-1.8c1.88-0.64,2.7-2.02,2.77-3.9
		c0.06-1.65,0.02-3.31,0.02-4.96c0-2.57,0.02-5.14-0.01-7.7c-0.01-0.68-0.09-1.37-0.26-2.02c-0.37-1.39-1.37-2.17-2.7-2.61
		c-1.06-0.35-1.05-0.38-1.1-1.41c-0.11-2.23,0.02-2.36,2.22-2.2c1.73,0.13,3.36,0.6,4.9,1.39c2.8,1.45,4.16,3.83,4.31,6.9
		c0.1,1.99,0.02,3.99,0.02,5.99C233.85,99.17,233.86,99.17,233.87,99.17z"/>
	<path class="st0" d="M346.18,99.04c0,1.48,0.01,2.97,0,4.45c-0.01,0.74-0.02,1.49-0.1,2.22c-0.32,2.74-1.67,4.8-4.1,6.15
		c-1.89,1.05-3.96,1.42-6.07,1.62c-0.84,0.08-1.02-0.11-1.11-0.91c-0.03-0.28-0.03-0.57-0.03-0.86c0-1.52-0.01-1.54,1.4-2.09
		c1.63-0.63,2.43-1.82,2.55-3.51c0.05-0.8,0.04-1.6,0.04-2.4c0-3.25,0-6.51,0-9.76c0-0.51,0-1.03-0.02-1.54
		c-0.06-1.92-0.96-3.3-2.81-3.85c-0.91-0.27-1.14-0.75-1.16-1.59c-0.06-2.09,0.07-2.25,2.19-2.09c1.78,0.14,3.48,0.62,5.05,1.48
		c2.43,1.33,3.85,3.41,4.04,6.17c0.15,2.16,0.03,4.34,0.03,6.5C346.12,99.04,346.15,99.04,346.18,99.04z"/>
	<path class="st0" d="M321.83,99.19c0-1.89-0.05-3.77,0.01-5.66c0.13-4.06,2.04-6.61,5.88-7.94c1.41-0.49,2.87-0.78,4.37-0.75
		c0.82,0.02,0.97,0.17,1.05,1.02c0.04,0.4,0.01,0.8,0.02,1.2c0.02,0.77-0.22,1.24-1.07,1.48c-1.95,0.56-2.86,2.01-2.88,3.99
		c-0.03,4.4-0.03,8.8,0,13.2c0.01,1.97,0.91,3.41,2.88,3.98c0.81,0.23,1.04,0.71,1.08,1.48c0.1,2.34-0.05,2.47-2.33,2.14
		c-1.42-0.2-2.81-0.49-4.12-1.08c-3.05-1.38-4.71-3.73-4.86-7.07c-0.09-2-0.02-4-0.02-6C321.84,99.19,321.84,99.19,321.83,99.19z"/>
	<path class="st0" d="M219.24,84.84c0.23,0,0.46,0,0.69,0c0.53,0,0.87,0.22,0.88,0.8c0.01,0.46,0.03,0.91,0.02,1.37
		c-0.03,1.1-0.03,1.11-1.14,1.53c-1.59,0.59-2.55,1.69-2.72,3.4c-0.07,0.74-0.14,1.48-0.14,2.22c-0.01,3.31-0.02,6.62,0,9.94
		c0,0.74,0.07,1.48,0.14,2.22c0.16,1.63,1.01,2.73,2.56,3.32c1.31,0.51,1.3,0.54,1.31,1.95c0,0.11,0,0.23,0,0.34
		c-0.02,1.58-0.16,1.73-1.65,1.52c-1.75-0.25-3.5-0.53-5.11-1.33c-2.66-1.33-4.2-3.45-4.48-6.43c-0.09-0.91-0.13-1.82-0.14-2.74
		c-0.02-2.51-0.01-5.03,0-7.54c0-0.68,0.04-1.37,0.07-2.05c0.22-4.86,3.1-6.99,6.36-7.91c1.09-0.31,2.22-0.48,3.33-0.71
		C219.22,84.77,219.23,84.81,219.24,84.84z"/>
	<path class="st0" d="M146.25,99.23c0,3.82,0,7.65,0,11.47c0,0.46,0,0.91-0.03,1.37c-0.04,0.53-0.33,0.85-0.87,0.86
		c-1.88,0.01-3.77,0-5.65-0.01c-0.56,0-0.81-0.36-0.83-0.88c-0.02-0.4-0.03-0.8-0.03-1.2c0-7.82,0-15.64,0-23.46
		c0-0.23,0-0.46,0.01-0.68c0.06-1.38,0.09-1.43,1.48-1.45c1.54-0.02,3.08-0.02,4.62,0c1.1,0.02,1.24,0.18,1.3,1.31
		c0.02,0.4,0.01,0.8,0.01,1.2C146.25,91.58,146.25,95.4,146.25,99.23z"/>
	<path class="st0" d="M308.89,99.04c0-3.77,0-7.55,0-11.32c0-0.4-0.02-0.8,0.01-1.2c0.07-1.1,0.21-1.26,1.36-1.27
		c1.66-0.02,3.32-0.02,4.98,0.01c0.85,0.02,0.98,0.16,1.06,1c0.04,0.4,0.03,0.8,0.03,1.2c0,7.72,0,15.44,0,23.16
		c0,2.34-0.01,2.34-2.38,2.34c-1.32,0-2.63,0.02-3.95-0.03c-0.82-0.03-1-0.23-1.08-1.02c-0.04-0.45-0.02-0.91-0.02-1.37
		C308.89,106.7,308.89,102.87,308.89,99.04z"/>
	<path class="st0" d="M175.13,60.26c0,3.95,0,7.89,0,11.84c0,0.46,0.06,0.93-0.06,1.36c-0.07,0.27-0.39,0.48-0.62,0.7
		c-0.07,0.06-0.22,0.06-0.33,0.06c-1.77,0-3.55,0.04-5.32-0.01c-0.84-0.02-0.98-0.23-1.04-1.04c-0.03-0.34-0.01-0.69-0.01-1.03
		c0-7.89,0-15.78,0-23.68c0-2.04-0.08-2,1.95-2c1.49,0.01,2.97-0.02,4.46,0.02c0.76,0.02,0.9,0.17,0.96,0.9
		c0.03,0.46,0.02,0.91,0.02,1.37C175.13,52.6,175.13,56.43,175.13,60.26z"/>
	<path class="st0" d="M257.38,85.24c0.86,0,1.71-0.02,2.57,0.01c0.64,0.02,0.78,0.22,0.64,0.88c-0.09,0.39-0.22,0.77-0.34,1.15
		c-2.47,7.96-4.95,15.91-7.4,23.87c-0.61,1.98-0.63,1.78-2.49,1.81c-0.97,0.01-1.94,0.01-2.91-0.05c-0.6-0.03-0.8-0.32-0.69-0.92
		c0.08-0.45,0.21-0.89,0.33-1.33c2.08-7.83,4.16-15.66,6.25-23.48c0.06-0.22,0.13-0.44,0.2-0.66c0.37-1.25,0.37-1.26,1.62-1.28
		C255.89,85.22,256.63,85.24,257.38,85.24C257.38,85.24,257.38,85.24,257.38,85.24z"/>
	<path class="st0" d="M181.14,99.05c0-3.89,0-7.77,0-11.66c0-0.4-0.01-0.8,0.01-1.2c0.05-0.78,0.16-0.92,0.9-0.94
		c1.08-0.04,2.17-0.03,3.26-0.01c1.24,0.02,1.97,0.68,2.13,1.93c0.04,0.34,0.02,0.68,0.02,1.03c0,7.6,0,15.2,0,22.8
		c0,0.29,0.01,0.57-0.01,0.86c-0.06,0.87-0.18,1.05-0.99,1.07c-1.48,0.04-2.97,0.01-4.46,0c-0.53-0.01-0.85-0.27-0.85-0.84
		c0-0.46-0.02-0.91-0.02-1.37C181.14,106.82,181.14,102.93,181.14,99.05z"/>
	<path class="st0" d="M351.67,99.12c0-4-0.01-8,0-12.01c0-1.88,0.02-1.88,1.9-1.89c0.69,0,1.37-0.01,2.06,0
		c1.48,0.02,2.16,0.62,2.34,2.1c0.04,0.34,0.03,0.69,0.03,1.03c0,7.49,0,14.98,0,22.47c0,0.23,0.01,0.46-0.01,0.69
		c-0.08,1.24-0.21,1.4-1.4,1.43c-1.31,0.03-2.63,0-3.94-0.01c-0.61-0.01-0.95-0.31-0.96-0.94c0-0.46-0.02-0.91-0.02-1.37
		C351.67,106.78,351.67,102.95,351.67,99.12z"/>
	<path class="st0" d="M158.58,99.63c0,3.6,0,7.2,0,10.81c0,0.29,0.01,0.57,0,0.86c-0.05,1.54-0.14,1.64-1.7,1.66
		c-1.2,0.02-2.4,0.02-3.6-0.03c-0.84-0.04-0.95-0.19-1.01-1.06c-0.03-0.4-0.02-0.8-0.02-1.2c0-7.72,0-15.44,0-23.16
		c0-2.57-0.06-2.25,2.37-2.28c0.69-0.01,1.37,0.03,2.06-0.01c0.65-0.03,1.05,0.25,1.4,0.78c0.47,0.72,0.51,1.49,0.51,2.3
		C158.58,92.08,158.58,95.85,158.58,99.63z"/>
	<path class="st0" d="M138.86,60.09c0-3.77,0-7.55,0-11.32c0-0.34-0.01-0.69,0.01-1.03c0.06-1.15,0.14-1.23,1.32-1.26
		c0.91-0.02,1.83-0.02,2.75,0c1.25,0.02,1.87,0.5,2.16,1.72c0.1,0.44,0.1,0.91,0.1,1.36c0.01,7.55,0.01,15.1,0,22.65
		c0,1.95-0.09,2.03-2.03,2.05c-1.09,0.01-2.18,0.02-3.26-0.05c-0.8-0.05-0.98-0.25-1.02-1.08c-0.04-1.03-0.02-2.06-0.03-3.09
		C138.86,66.73,138.86,63.41,138.86,60.09z"/>
	<path class="st0" d="M282.35,112.94c-0.8,0-1.6-0.02-2.4,0.01c-0.76,0.02-1.13-0.35-1.32-1.06c-0.64-2.43-1.31-4.84-1.97-7.26
		c-1.6-5.83-3.21-11.66-4.81-17.48c-0.11-0.39-0.21-0.77-0.3-1.16c-0.1-0.41,0.07-0.7,0.49-0.71c1.43-0.03,2.85-0.04,4.28,0.01
		c0.26,0.01,0.58,0.32,0.74,0.57c0.21,0.33,0.29,0.74,0.41,1.12c2.62,7.96,5.25,15.92,7.87,23.89c0.68,2.08,0.67,2.08-1.45,2.09
		c-0.51,0-1.03,0-1.54,0C282.35,112.95,282.35,112.95,282.35,112.94z"/>
	<path class="st0" d="M219.54,62.49c0-3.08,0-6.17,0-9.25c0-0.46,0.02-0.91,0.02-1.37c0.01-0.48,0.29-0.73,0.72-0.81
		c0.33-0.06,0.68-0.07,1.02-0.07c1.26-0.01,2.51-0.01,3.77,0c1.8,0.02,1.85,0.07,1.85,1.81c0.01,3.08,0,6.17,0,9.25
		c0,3.26,0,6.51,0,9.77c0,0.4,0.01,0.8-0.01,1.2c-0.06,0.99-0.21,1.14-1.24,1.23c-0.17,0.01-0.34,0.01-0.51,0.02
		c-1.26,0-2.51,0.02-3.77,0c-1.78-0.03-1.85-0.1-1.86-1.83c-0.01-2,0-4,0-6C219.54,65.12,219.54,63.8,219.54,62.49z"/>
	<path class="st0" d="M298.96,101.38c0,2.97,0,5.94,0,8.91c0,0.4,0.01,0.8-0.01,1.2c-0.07,1.31-0.19,1.45-1.53,1.47
		c-1.54,0.02-3.08,0.03-4.63-0.01c-1.05-0.03-1.17-0.19-1.26-1.21c-0.03-0.34-0.02-0.68-0.02-1.03c0-6.28-0.01-12.56,0-18.84
		c0-2.12,0.02-2.12,2.06-2.13c1.43,0,2.86-0.02,4.28,0.01c0.8,0.02,0.99,0.22,1.07,1.01c0.05,0.45,0.03,0.91,0.03,1.37
		C298.97,95.21,298.96,98.29,298.96,101.38z"/>
	<path class="st0" d="M161.75,60.26c0,3.88,0,7.76,0,11.64c0,0.46-0.02,0.91-0.01,1.37c0,0.54-0.26,0.9-0.8,0.91
		c-1.25,0.03-2.51,0.07-3.76,0.01c-0.74-0.04-1.31-0.75-1.44-1.67c-0.06-0.45-0.05-0.91-0.05-1.37c0-7.53,0-15.07,0-22.6
		c0-2.25,0.03-2.08,2.04-2.09c1.03,0,2.06-0.02,3.08,0.02c0.74,0.03,0.87,0.19,0.93,0.93c0.03,0.4,0.01,0.8,0.01,1.2
		C161.75,52.5,161.75,56.38,161.75,60.26z"/>
	<path class="st0" d="M374.55,99.22c0,3.83,0,7.66,0,11.49c0,0.4,0.01,0.8-0.01,1.2c-0.06,0.83-0.18,0.97-1.05,1.01
		c-1.03,0.05-2.06,0.05-3.09,0.01c-1.08-0.03-1.66-0.54-1.86-1.61c-0.07-0.39-0.06-0.8-0.06-1.2c0-7.66,0-15.33,0-22.99
		c0-0.23,0-0.46,0.01-0.69c0.06-1.11,0.13-1.2,1.18-1.22c1.31-0.03,2.63-0.03,3.95,0.01c0.75,0.02,0.89,0.17,0.92,0.93
		c0.04,1.2,0.02,2.4,0.02,3.6C374.55,92.93,374.55,96.07,374.55,99.22z"/>
	<path class="st0" d="M204,99.13c0,3.89,0,7.77,0,11.66c0,0.23,0,0.46,0,0.69c-0.04,1.38-0.08,1.43-1.47,1.47
		c-0.86,0.03-1.72,0.03-2.57,0c-1.12-0.04-1.78-0.63-1.96-1.73c-0.05-0.34-0.03-0.68-0.03-1.03c0-7.71,0-15.43,0-23.14
		c0-1.8,0.01-1.81,1.77-1.82c1.09-0.01,2.17-0.02,3.26,0.01c0.87,0.03,0.94,0.12,1,1.03c0.03,0.46,0.01,0.91,0.01,1.37
		C204,91.47,204,95.3,204,99.13z"/>
	<path class="st0" d="M175.13,98.94c0,4.12,0.01,8.23,0,12.35c0,1.6-0.04,1.63-1.63,1.66c-0.8,0.02-1.6,0.02-2.4,0
		c-1.26-0.04-1.85-0.59-2-1.85c-0.05-0.4-0.03-0.8-0.03-1.2c0-7.55,0-15.1,0-22.64c0-2.22,0.01-2.01,2.11-2.02
		c1.03,0,2.06,0.01,3.09,0.01c0.55,0,0.85,0.26,0.85,0.83c0,0.46,0.02,0.91,0.02,1.37C175.13,91.28,175.13,95.11,175.13,98.94z"/>
	<path class="st0" d="M264.49,112.93c-0.91,0-1.83,0.01-2.74,0c-0.5-0.01-0.74-0.27-0.62-0.77c0.08-0.33,0.19-0.66,0.3-0.98
		c2.6-7.91,5.21-15.82,7.81-23.72c0.07-0.22,0.09-0.46,0.2-0.65c0.1-0.17,0.29-0.28,0.44-0.42c0.1,0.14,0.23,0.26,0.28,0.41
		c0.2,0.65,0.37,1.32,0.55,1.98c0.55,1.98,1.09,3.96,1.67,5.93c0.19,0.63,0.2,1.2,0.02,1.84c-0.46,1.71-0.86,3.43-1.29,5.14
		c-0.06,0.22-0.13,0.44-0.18,0.66c-0.4,1.75-0.4,1.75,1.32,1.77c0.51,0.01,1.03-0.01,1.54,0.01c0.44,0.02,1.01-0.15,1.2,0.39
		c0.2,0.58,0.28,1.21,0.33,1.82c0.01,0.1-0.43,0.33-0.66,0.33c-1.08,0.04-2.17,0.01-3.25,0.03c-1.35,0.03-1.38,0.05-1.8,1.34
		c-0.36,1.14-0.68,2.3-1.04,3.44c-0.45,1.45-0.46,1.45-2.03,1.48c-0.68,0.01-1.37,0-2.06,0
		C264.49,112.95,264.49,112.94,264.49,112.93z"/>
	<path class="st0" d="M240.53,85.24c0.86,0,1.71,0.02,2.57-0.01c0.61-0.01,0.96,0.25,1.08,0.85c0.06,0.28,0.17,0.54,0.24,0.82
		c1.1,4.42,2.22,8.84,3.29,13.28c0.16,0.64,0.24,1.38,0.08,2.01c-0.78,3.09-1.65,6.17-2.5,9.24c-0.05,0.17-0.24,0.3-0.36,0.45
		c-0.08-0.14-0.2-0.27-0.25-0.43c-1.35-4.53-2.7-9.07-4.05-13.6c-1.05-3.55-2.11-7.1-3.16-10.66c-0.11-0.38-0.23-0.76-0.31-1.15
		c-0.1-0.49,0.12-0.78,0.63-0.79c0.91-0.02,1.83,0,2.74,0C240.53,85.25,240.53,85.24,240.53,85.24z"/>
	<path class="st0" d="M223.1,46.47c3.02,0,6.05-0.01,9.07,0.01c1.31,0.01,1.44,0.16,1.49,1.48c0,0.11,0,0.23,0,0.34
		c-0.02,1.5-0.17,1.68-1.66,1.68c-5.93,0.01-11.87,0.01-17.8,0c-0.28,0-0.57,0-0.85-0.05c-0.36-0.07-0.61-0.3-0.63-0.7
		c-0.01-0.17-0.02-0.34-0.03-0.51c-0.11-2.25-0.11-2.25,2.19-2.25C217.63,46.47,220.37,46.47,223.1,46.47z"/>
	<path class="st0" d="M295.24,85.24c2.8,0,5.6,0,8.4,0c0.46,0,0.92-0.03,1.36,0.06c0.22,0.05,0.4,0.33,0.56,0.53
		c0.06,0.07,0.04,0.22,0.05,0.33c0.06,2.46,0.11,2.51-2.2,2.51c-5.54,0-11.08,0-16.62,0c-2.08,0-2.15-0.12-2.08-2.3
		c0.03-1,0.17-1.12,1.28-1.12C289.07,85.23,292.16,85.24,295.24,85.24C295.24,85.24,295.24,85.24,295.24,85.24z"/>
	<path class="st0" d="M154.12,65.42c0,1.31,0,2.62-0.01,3.93c0,0.1-0.09,0.29-0.12,0.29c-0.14-0.02-0.33-0.05-0.41-0.14
		c-0.22-0.26-0.4-0.55-0.6-0.83c-1.8-2.63-3.58-5.28-5.41-7.89c-0.58-0.82-0.9-1.66-0.87-2.69c0.06-2.11,0.02-4.22,0.03-6.32
		c0-0.21,0.11-0.42,0.17-0.62c0.18,0.1,0.41,0.17,0.52,0.32c2.09,2.92,4.18,5.83,6.22,8.78c0.3,0.43,0.42,1.05,0.45,1.6
		c0.07,1.19,0.02,2.39,0.02,3.59C154.13,65.42,154.12,65.42,154.12,65.42z"/>
	<path class="st0" d="M196.38,104.11c0,1.31,0,2.62-0.01,3.93c0,0.09-0.1,0.22-0.18,0.24c-0.08,0.03-0.23-0.02-0.29-0.09
		c-0.22-0.26-0.43-0.53-0.62-0.81c-1.83-2.68-3.65-5.38-5.5-8.05c-0.5-0.73-0.8-1.46-0.77-2.37c0.05-2.17,0.01-4.33,0.03-6.5
		c0-0.21,0.1-0.42,0.15-0.63c0.18,0.1,0.42,0.15,0.52,0.3c2.09,2.92,4.19,5.84,6.23,8.79c0.3,0.43,0.41,1.05,0.44,1.59
		c0.06,1.19,0.02,2.39,0.02,3.59C196.39,104.11,196.38,104.11,196.38,104.11z"/>
	<path class="st0" d="M366.92,104.02c0,1.31,0,2.62-0.01,3.94c0,0.1-0.09,0.27-0.15,0.28c-0.14,0.01-0.31-0.03-0.42-0.11
		c-0.13-0.1-0.22-0.26-0.31-0.4c-1.96-2.87-3.92-5.75-5.89-8.62c-0.37-0.53-0.6-1.08-0.6-1.74c0.02-2.28,0-4.57,0.01-6.85
		c0-0.21,0.11-0.42,0.17-0.62c0.21,0.15,0.49,0.25,0.63,0.44c2,2.78,3.97,5.58,5.96,8.36c0.45,0.63,0.65,1.3,0.63,2.08
		c-0.03,1.08-0.01,2.17-0.01,3.25C366.93,104.02,366.92,104.02,366.92,104.02z"/>
	<path class="st0" d="M167.5,104.12c0,1.26,0.01,2.51-0.01,3.77c0,0.14-0.15,0.28-0.23,0.42c-0.14-0.09-0.31-0.15-0.41-0.26
		c-0.19-0.21-0.33-0.46-0.49-0.7c-1.83-2.69-3.68-5.37-5.49-8.07c-0.31-0.46-0.68-1-0.69-1.52c-0.07-2.51-0.04-5.02-0.02-7.53
		c0-0.13,0.15-0.27,0.26-0.38c0.03-0.02,0.21,0.07,0.27,0.15c0.19,0.22,0.35,0.45,0.52,0.68c1.85,2.6,3.7,5.21,5.57,7.81
		c0.52,0.72,0.81,1.47,0.77,2.38c-0.05,1.08-0.01,2.17-0.01,3.25C167.51,104.12,167.51,104.12,167.5,104.12z"/>
	<path class="st0" d="M189.97,74.21c-0.85,0-1.71,0.03-2.56-0.01c-0.53-0.03-0.67-0.32-0.47-0.83c0.11-0.26,0.25-0.51,0.38-0.76
		c1.84-3.34,3.69-6.68,5.53-10.02c0.14-0.25,0.27-0.5,0.43-0.74c0.23-0.34,0.5-0.47,0.78-0.04c0.22,0.33,0.43,0.67,0.64,1.01
		c0.69,1.12,1.36,2.24,2.06,3.35c0.33,0.52,0.44,1.01,0.12,1.59c-1.06,1.88-2.11,3.78-3.13,5.68c-0.31,0.58-0.78,0.79-1.39,0.79
		c-0.8,0-1.6,0-2.39,0C189.97,74.23,189.97,74.22,189.97,74.21z"/>
	<path class="st0" d="M206.78,46.49c0.91,0,1.83-0.02,2.74,0.01c0.42,0.01,0.62,0.26,0.46,0.68c-0.1,0.27-0.23,0.52-0.36,0.78
		c-1.71,3.29-3.43,6.58-5.14,9.87c-0.05,0.1-0.1,0.2-0.16,0.3c-0.54,0.92-0.69,0.94-1.25,0.1c-0.5-0.76-0.99-1.54-1.45-2.33
		c-0.52-0.88-1-1.78-1.49-2.67c0.4-0.88,0.79-1.77,1.21-2.64c0.54-1.13,1.12-2.25,1.66-3.38c0.25-0.53,0.63-0.76,1.22-0.74
		c0.86,0.03,1.71,0.01,2.57,0.01C206.78,46.48,206.78,46.49,206.78,46.49z"/>
	<path class="st0" d="M180.6,49.68c-1.02,0-2.04-0.01-3.06,0c-0.57,0.01-0.83-0.27-0.84-0.82c0-0.06-0.01-0.11-0.01-0.17
		c-0.04-2.46-0.04-2.21,2.03-2.22c1.65,0,3.29-0.02,4.94,0.01c1.02,0.02,1.18,0.19,1.24,1.18c0.02,0.34,0.02,0.68-0.01,1.02
		c-0.08,0.81-0.24,0.98-1.05,1C182.76,49.71,181.68,49.69,180.6,49.68C180.6,49.69,180.6,49.69,180.6,49.68z"/>
	<path class="st0" d="M180.77,71.15c1.03,0,2.05-0.03,3.08,0.01c0.8,0.03,0.96,0.22,1.05,1.03c0.01,0.06,0.01,0.11,0.01,0.17
		c0.09,1.52-0.17,1.85-1.67,1.88c-1.71,0.03-3.42,0.04-5.13-0.01c-1.31-0.03-1.41-0.19-1.42-1.54c0-0.17,0-0.34,0.01-0.51
		c0.06-0.89,0.13-1,1-1.03C178.72,71.12,179.74,71.15,180.77,71.15z"/>
	<path class="st0" d="M179.34,61.45c-0.28,0-0.57,0.03-0.85-0.01c-0.54-0.08-1.08-0.19-1.62-0.29c-0.03-0.78-0.1-1.56-0.07-2.33
		c0.01-0.16,0.4-0.44,0.62-0.44c1.3-0.04,2.6-0.03,3.9,0c0.19,0,0.54,0.2,0.55,0.32c0.06,0.78,0.08,1.57,0.02,2.34
		c-0.01,0.14-0.43,0.34-0.68,0.36c-0.62,0.05-1.25,0.02-1.87,0.02C179.34,61.43,179.34,61.44,179.34,61.45z"/>
</g>
</svg>
